<?xml version="1.0" encoding="UTF-8"?>
<svg id="Layer_1" data-name="Layer 1" xmlns="http://www.w3.org/2000/svg" viewBox="0 0 907.8 311.98">
  <g>
    <path d="M519.11,27.37h-43.63l-87.64,267.89h25.64l22.96-71.18h121.7l22.96,71.18h25.64L519.11,27.37ZM443.33,201.88l51.66-159.97h4.59l51.66,159.97h-107.92Z"/>
    <path d="M702.39,108.5h21.81v21.43h-24.49c-14.03,0-25.26,3.96-33.68,11.86-8.42,7.91-12.63,20.28-12.63,37.12v116.34h-22.96V109.27h22.2v23.34h4.59c3.57-8.42,8.86-14.54,15.88-18.37,7.01-3.83,16.77-5.74,29.28-5.74Z"/>
    <path d="M907.8,229.82c-2.3,11.99-7.08,23.41-14.35,34.25-7.27,10.85-17.1,19.65-29.47,26.41-12.38,6.76-27.49,10.14-45.35,10.14s-34.25-3.89-48.41-11.67c-14.16-7.78-25.32-18.94-33.48-33.49-8.17-14.54-12.25-31.63-12.25-51.28v-3.83c0-19.9,4.08-37.06,12.25-51.47,8.16-14.41,19.33-25.51,33.48-33.29,14.16-7.78,30.29-11.67,48.41-11.67s32.97,3.38,45.35,10.14c12.37,6.76,22.06,15.57,29.08,26.41,7.01,10.85,11.42,22.26,13.2,34.25l-22.58,4.59c-1.28-9.95-4.47-19.07-9.57-27.36-5.11-8.29-12.25-14.92-21.43-19.9-9.19-4.98-20.54-7.46-34.06-7.46s-25.64,3.13-36.36,9.38c-10.72,6.26-19.2,15.06-25.45,26.41-6.25,11.36-9.38,24.82-9.38,40.37v3.06c0,15.56,3.12,29.02,9.38,40.37,6.25,11.36,14.73,20.16,25.45,26.41,10.72,6.26,22.83,9.38,36.36,9.38,20.41,0,35.97-5.29,46.69-15.88,10.72-10.58,17.35-23.54,19.9-38.84l22.58,4.59Z"/>
  </g>
  <path d="M0,311.98c2.53-76.38,15.48-147.66,37.13-203.09C64.54,38.67,104.23,0,148.86,0s84.32,38.67,111.74,108.9c14.26,36.52,24.75,79.92,30.97,127.13.56,4.22,1.03,8.5,1.51,12.78.16.26.25.51.22.71,0,0,3.65,22.82,4.43,62.47h-.41c-5.42-4.45-69.33-54.66-175.27-40.12,1.6-17.93,3.8-35.37,6.64-52.09.15-.85.31-1.68.46-2.53,41.55-1.25,77.92,3.57,105.81,9.9-.1-.66-.19-1.34-.3-2-5.73-35.7-14.19-68.38-25.1-96.31-17.83-45.67-41.1-74.04-60.71-74.04s-42.88,28.37-60.71,74.04c-4.32,11.05-8.25,22.83-11.77,35.25-4.95,17.41-9.11,36.08-12.44,55.69-4.92,28.97-7.99,60.03-9.12,92.22H0Z"/>
</svg>